<svg width="1289" height="144" viewBox="0 0 1289 144" fill="none" xmlns="http://www.w3.org/2000/svg">
<path fill-rule="evenodd" clip-rule="evenodd" d="M0.0139453 72.2837V72.0256C-0.14028 65.1188 1.10295 58.2521 3.66898 51.8378C6.235 45.4235 10.0709 39.594 14.9463 34.6993C19.8217 29.8046 25.636 25.9457 32.0401 23.3544C38.4442 20.7631 45.306 19.4927 52.2133 19.6197C59.5583 19.3493 66.8788 20.6148 73.7068 23.3353C80.5347 26.0558 86.7197 30.1714 91.8662 35.4189L80.4557 48.5333C76.7861 44.6694 72.387 41.5712 67.5128 39.4177C62.6387 37.2641 57.386 36.0981 52.0584 35.9868C47.4977 36.0713 43.0003 37.0705 38.8329 38.9253C34.6655 40.7802 30.9129 43.4528 27.7976 46.7848C24.6823 50.1168 22.2677 54.0403 20.6968 58.3228C19.126 62.6053 18.4309 67.1596 18.6529 71.7158V72.0256C18.6529 91.8004 32.6966 107.857 52.11 107.857C57.5925 107.822 63.0077 106.647 68.0118 104.407C73.0159 102.167 77.4997 98.9117 81.1785 94.8466L92.5891 106.412C87.5079 112.263 81.1887 116.911 74.0893 120.019C66.99 123.126 59.2882 124.616 51.5421 124.379C44.7036 124.465 37.9181 123.171 31.5906 120.576C25.2631 117.981 19.5234 114.137 14.714 109.275C9.90468 104.412 6.12437 98.6313 3.59872 92.2757C1.07308 85.9201 -0.146115 79.1208 0.0139453 72.2837Z" fill="#323E48"/>
<path fill-rule="evenodd" clip-rule="evenodd" d="M430.93 82.7658L413.427 42.2867L396.079 82.7658H430.93ZM405.476 21.0146H421.998L466.504 122.986H447.71L437.436 98.5134H389.573L379.144 122.986H360.918L405.476 21.0146Z" fill="#323E48"/>
<path fill-rule="evenodd" clip-rule="evenodd" d="M556.189 21.3242H574.002V106.413H627.234V122.625H556.189V21.3758" fill="#323E48"/>
<path fill-rule="evenodd" clip-rule="evenodd" d="M718.053 21.3242H793.435V37.588H735.866V65.2109H786.981V81.4231H735.866V122.625H718.104V21.3758" fill="#323E48"/>
<path fill-rule="evenodd" clip-rule="evenodd" d="M886.32 122.624H904.082V21.375H886.32V122.624Z" fill="#323E48"/>
<path fill-rule="evenodd" clip-rule="evenodd" d="M1047.31 71.5618C1060.01 71.5618 1068.11 64.9014 1068.11 54.6267V54.3686C1068.11 43.526 1060.32 37.5884 1047.15 37.5884H1021.28V71.5618H1047.31ZM1003.47 21.3761H1048.6C1059.29 20.7882 1069.78 24.4222 1077.82 31.4959C1083.41 37.374 1086.43 45.2286 1086.24 53.3359V53.6457C1086.45 60.7568 1084.16 67.7167 1079.77 73.3185C1075.39 78.9203 1069.18 82.8106 1062.23 84.3148L1089.54 122.625H1068.42L1043.54 87.3094H1021.28V122.625H1003.47V21.3761Z" fill="#323E48"/>
<path fill-rule="evenodd" clip-rule="evenodd" d="M1180.36 21.3242H1255.43V37.3299H1198.17V63.6619H1248.98V79.5644H1198.17V106.774H1256.21V122.677H1180.36V21.3758" fill="#323E48"/>
<path fill-rule="evenodd" clip-rule="evenodd" d="M1278.41 110.801H1275.78V114.26H1278.46C1278.71 114.304 1278.97 114.294 1279.22 114.23C1279.47 114.166 1279.7 114.049 1279.91 113.888C1280.11 113.727 1280.27 113.524 1280.39 113.295C1280.5 113.065 1280.57 112.813 1280.58 112.556C1280.58 112.292 1280.53 112.03 1280.42 111.789C1280.31 111.549 1280.15 111.336 1279.94 111.167C1279.74 110.999 1279.5 110.878 1279.24 110.814C1278.99 110.751 1278.72 110.746 1278.46 110.801H1278.41ZM1280.22 115.706L1283.11 119.785H1280.68L1278.05 116.016H1275.78V119.785H1273.71V108.942H1278.51C1279.02 108.861 1279.54 108.889 1280.03 109.024C1280.53 109.16 1280.99 109.399 1281.39 109.726C1281.78 110.054 1282.1 110.461 1282.33 110.923C1282.55 111.384 1282.68 111.888 1282.69 112.401C1282.74 113.156 1282.51 113.902 1282.06 114.507C1281.61 115.112 1280.95 115.536 1280.22 115.706ZM1277.89 105.38C1276.05 105.369 1274.25 105.906 1272.72 106.921C1271.18 107.936 1269.98 109.384 1269.27 111.081C1268.56 112.778 1268.37 114.648 1268.72 116.454C1269.07 118.261 1269.95 119.921 1271.25 121.226C1272.55 122.531 1274.2 123.422 1276.01 123.784C1277.81 124.147 1279.68 123.966 1281.39 123.264C1283.09 122.562 1284.54 121.371 1285.56 119.842C1286.59 118.312 1287.13 116.514 1287.13 114.673C1287.15 113.453 1286.92 112.243 1286.46 111.112C1286 109.982 1285.32 108.954 1284.46 108.089C1283.6 107.224 1282.58 106.539 1281.45 106.074C1280.32 105.609 1279.11 105.373 1277.89 105.38ZM1277.89 124.999C1276.53 125.006 1275.19 124.744 1273.93 124.227C1272.68 123.711 1271.54 122.95 1270.58 121.99C1269.62 121.03 1268.86 119.889 1268.34 118.633C1267.82 117.377 1267.56 116.031 1267.57 114.673C1267.57 112.631 1268.17 110.634 1269.31 108.936C1270.44 107.238 1272.05 105.915 1273.94 105.133C1275.83 104.351 1277.9 104.147 1279.91 104.545C1281.91 104.944 1283.75 105.927 1285.19 107.371C1286.64 108.816 1287.62 110.656 1288.02 112.659C1288.42 114.662 1288.21 116.738 1287.43 118.625C1286.65 120.512 1285.33 122.125 1283.63 123.259C1281.93 124.394 1279.94 124.999 1277.89 124.999Z" fill="#323E48"/>
<path fill-rule="evenodd" clip-rule="evenodd" d="M250.686 0L199.158 29.7913V89.2707L250.686 119.062L302.214 89.2707V29.7913L250.686 0ZM215.887 79.6673V39.3948L250.686 19.2585L285.538 39.3948V79.6156L250.686 99.7519L215.887 79.6156V79.6673Z" fill="#323E48"/>
<path fill-rule="evenodd" clip-rule="evenodd" d="M155.943 54.7289V114.208L207.523 144L259.051 114.208V54.7289L207.575 24.9375L155.943 54.7289ZM172.672 104.553V64.3323L207.523 44.2477L242.323 64.384V104.553L207.523 124.69L172.672 104.553Z" fill="#E25928"/>
</svg>
