<svg width="1577" height="144" viewBox="0 0 1577 144" fill="none" xmlns="http://www.w3.org/2000/svg">
<mask id="mask0_1418_1102" style="mask-type:luminance" maskUnits="userSpaceOnUse" x="0" y="0" width="1577" height="144">
<path d="M1576.72 0H0V144H1576.72V0Z" fill="white"/>
</mask>
<g mask="url(#mask0_1418_1102)">
<path fill-rule="evenodd" clip-rule="evenodd" d="M350.858 50.8791H441.608V95.6967H350.858V50.8791ZM76.9334 50.8791H167.683V95.6967H76.9334V50.8791ZM0.1875 49.2024C0.1875 50.493 0.579089 50.8791 1.86968 50.8791H30.9962V96.2538H76.3709V140.509C76.3709 141.799 76.7624 142.191 78.053 142.191H212.495C213.786 142.191 214.177 141.799 214.177 140.509V96.2538H259.552V50.8791H304.364V94.5771C304.364 95.8677 304.756 96.2538 306.046 96.2538H350.301V140.509C350.301 141.799 350.687 142.191 351.978 142.191H487.539V96.2538H533.477V50.8791H562.046C563.337 50.8791 563.728 50.493 563.728 49.2024V4.38477H0.1875V49.2024Z" fill="black"/>
<path fill-rule="evenodd" clip-rule="evenodd" d="M722.817 70.4861H688.087V21.19H721.135C735.662 21.19 752.506 25.9663 752.506 42.4792C752.506 51.8277 752.583 59.0418 743.549 65.4506C738.888 68.7598 730.853 70.4861 722.817 70.4861ZM670.156 140.509C670.156 141.799 670.548 142.191 671.838 142.191H686.404C687.695 142.191 688.087 141.799 688.087 140.509V87.2914H722.254C736.754 87.2914 747.983 83.8277 756.438 77.7774C763.812 72.4992 770.993 61.3141 770.993 48.6399C770.993 33.6988 768.418 23.0156 756.03 13.7443C747.481 7.34099 735.303 4.38477 720.572 4.38477H670.156V140.509Z" fill="black"/>
<path fill-rule="evenodd" clip-rule="evenodd" d="M1229.22 128.188C1222.46 128.188 1217.89 128.353 1211.67 125.011C1191.14 113.997 1190.45 84.8594 1204.41 70.8891C1213 62.3017 1227.72 59.4834 1239.87 64.8829C1246.8 67.966 1252.79 74.4961 1255.64 81.5944C1264.19 102.917 1250.81 128.188 1229.22 128.188ZM1179.36 140.509C1179.36 141.8 1179.75 142.191 1181.04 142.191C1199.43 142.191 1196.17 145.032 1196.17 130.427C1199.27 132.506 1200.89 136.058 1208.3 139.588C1225.7 147.878 1249.11 143.918 1262.14 129.732C1284.57 105.294 1276.83 63.1842 1247.87 50.714C1231.48 43.6598 1212.23 45.3917 1199.39 56.9077C1198.05 58.11 1197.65 58.8546 1196.17 59.8419L1196.18 9.97767C1196.27 2.95665 1198.57 4.38512 1179.36 4.38512V140.509Z" fill="black"/>
<path fill-rule="evenodd" clip-rule="evenodd" d="M857.258 95.1348C857.258 59.7705 904.409 49.8649 919.085 79.8077C926.189 94.302 922.019 116.396 905.451 124.84C891.31 132.049 870.583 128.078 862.316 113.606C861.467 112.122 860.441 110.131 859.724 108.355C858.505 105.349 857.258 99.0342 857.258 95.1348ZM840.453 95.1348C840.453 108.818 845.472 120.616 854.319 129.446C873.915 149.014 906.422 148.689 925.742 129.446C941.99 113.264 943.921 86.9115 930.987 67.3431C918.412 48.3151 891.586 41.443 869.811 50.5544C864.395 52.8212 858.952 56.1745 854.87 60.2558C847.176 67.9387 840.453 80.0118 840.453 95.1348Z" fill="black"/>
<path fill-rule="evenodd" clip-rule="evenodd" d="M1344.06 128.188C1333.1 128.188 1325.44 127.057 1317.57 118.817C1299.77 100.164 1309.43 62.0863 1340.69 62.0863C1370.63 62.0863 1383.67 95.3604 1365.43 118.194C1361.25 123.428 1351.29 128.188 1344.06 128.188ZM1291.96 92.3325C1291.96 108.338 1295.51 119.782 1305.81 130.019C1309.15 133.333 1314.97 137.398 1319.41 139.384C1340.86 148.958 1366.92 143.504 1381.51 124.189C1392.09 110.191 1393.18 89.834 1386.07 73.8505C1381.54 63.6747 1371.54 54.5744 1361.26 50.4765C1350.76 46.2849 1342.14 45.5734 1330.68 47.581C1327.44 48.1491 1324.44 49.208 1321.64 50.3111C1313.48 53.5486 1306.41 59.0253 1301.32 65.8368C1296.09 72.8247 1291.96 82.9178 1291.96 92.3325Z" fill="black"/>
<path fill-rule="evenodd" clip-rule="evenodd" d="M967.618 35.1938V48.6402H948.568C945.684 48.6402 946.892 54.1721 946.892 62.0866C946.892 63.3772 947.278 63.7633 948.568 63.7633H967.618V140.509C967.618 141.8 968.004 142.191 969.295 142.191H982.741C984.032 142.191 984.423 141.8 984.423 140.509V63.7633H1018.59C1021.47 63.7633 1020.27 58.2314 1020.27 50.3224C1020.27 49.0318 1019.88 48.6402 1018.59 48.6402H984.423C984.423 35.977 981.379 15.5923 999.546 15.5923C1010.38 15.5923 1015.66 20.341 1019.15 20.6333L1024.76 7.18693C1013.3 1.12557 997.611 -2.96129 984.975 2.70296C973.509 7.84326 967.618 18.6423 967.618 35.1938Z" fill="black"/>
<path fill-rule="evenodd" clip-rule="evenodd" d="M1465.05 114.179V116.423C1465.05 132.798 1429.16 131.954 1414.87 123.472C1413.15 122.446 1410.05 120.201 1408.48 119.782C1406.19 124.095 1403.45 127.84 1401.2 132.109C1403.89 133.532 1405.59 134.878 1408.66 136.4C1440.49 152.207 1481.86 141.755 1481.86 116.98C1481.86 108.801 1481.01 101.631 1473.47 96.2481C1453.24 81.7924 1421.92 92.1006 1421.92 74.4074C1421.92 64.3198 1433.43 60.9665 1442.09 60.9665C1447.82 60.9665 1454.73 62.3619 1459.02 63.6359C1465.85 65.6601 1470.38 68.7817 1472.89 69.3664C1474.05 67.1878 1475.12 65.3898 1476.25 63.2002C1477.41 60.9665 1478.99 59.1906 1479.62 56.4825C1478.67 56.2288 1464.64 47.3216 1449.39 46.941C1438.24 46.6652 1427.31 46.213 1416.87 53.1127C1411.82 56.4495 1407.12 61.7221 1405.53 68.6659C1401.54 86.0337 1412.21 96.1103 1425.72 99.7393C1437.65 102.949 1451.07 102.067 1459.29 106.501C1461.63 107.764 1465.05 110.902 1465.05 114.179Z" fill="black"/>
<path fill-rule="evenodd" clip-rule="evenodd" d="M1559.72 114.179V116.424C1559.72 132.799 1523.83 131.955 1509.54 123.472C1507.82 122.446 1504.72 120.202 1503.15 119.782C1502.69 121.498 1497.37 129.263 1495.87 132.109C1512.09 140.697 1515.57 143.873 1538.44 143.873C1555.38 143.873 1576.53 134.321 1576.53 116.981C1576.53 108.73 1575.74 101.681 1568.14 96.2485C1563.42 92.8787 1557.89 90.4574 1551.29 89.0069C1538.11 86.1058 1516.59 87.948 1516.59 74.4078C1516.59 64.5133 1528.32 60.9669 1536.76 60.9669C1553.87 60.9669 1563.82 68.4898 1567.57 69.3668C1569.17 66.3389 1573.66 59.1744 1574.29 56.4829C1573.35 56.2292 1559.31 47.322 1544.05 46.9414L1531.7 46.9469C1514.76 47.0848 1496.78 59.0476 1499.86 79.9286C1501.49 90.9648 1510.07 96.4802 1520.44 99.6901C1527.58 101.902 1535.82 102.106 1543.65 103.369C1549.4 104.29 1559.72 107.257 1559.72 114.179Z" fill="black"/>
<path fill-rule="evenodd" clip-rule="evenodd" d="M1101.5 48.6402H1081.33V63.7632H1101.5V113.622C1101.5 130.383 1113.51 143.874 1131.75 143.874C1152.9 143.874 1156.87 136.279 1162 134.906C1160.91 132.848 1159.77 131.039 1158.41 128.971C1157.46 127.532 1155.07 123.93 1154.71 122.584C1152.6 122.761 1152.09 123.434 1150.77 124.233C1143.07 128.883 1127.29 131.26 1121.19 121.934C1118.78 118.233 1117.75 113.451 1117.75 107.461V63.7632H1156.95V48.6402H1117.75V19.5137H1101.5V48.6402Z" fill="black"/>
<path fill-rule="evenodd" clip-rule="evenodd" d="M795.643 59.8419C795.643 45.844 799.046 48.6403 779.395 48.6403V142.191C799.217 142.191 795.643 145.55 795.643 128.188C795.643 116.782 794.964 89.9943 796.431 81.9198C798.814 68.7878 810.115 60.8623 823.192 62.5389C826.049 62.903 827.67 63.0243 829.893 63.6806C832.281 64.3921 833.279 65.3849 835.971 65.4455L839.771 49.7323C830.831 45.3697 815.674 45.3035 806.855 50.3335C798.786 54.9443 797.308 58.623 795.643 59.8419Z" fill="black"/>
<path fill-rule="evenodd" clip-rule="evenodd" d="M1043.8 142.192H1058.37C1059.66 142.192 1060.04 141.8 1060.04 140.51V48.6406H1043.8V142.192Z" fill="black"/>
<path fill-rule="evenodd" clip-rule="evenodd" d="M1040.44 16.7118C1040.44 20.385 1040.45 22.8724 1043.91 26.1265C1050.42 32.243 1063.41 28.6084 1063.41 17.2688C1063.41 3.15507 1040.44 2.15127 1040.44 16.7118Z" fill="black"/>
</g>
</svg>
