<svg width="881" height="144" viewBox="0 0 881 144" fill="none" xmlns="http://www.w3.org/2000/svg">
<path d="M50.7861 144C84.1262 144 101.049 120.421 101.049 92.6719C101.049 64.9227 67.9704 24.9445 67.9704 24.9445C67.9704 24.9445 53.4227 9.23748 50.7674 0.729492H50.2439C47.5512 9.23748 33.0409 24.9445 33.0409 24.9445C33.0409 24.9445 0 64.9227 0 92.6719C0 120.402 16.9412 144 50.2626 144H50.7861Z" fill="white"/>
<path d="M202.098 143.271C235.438 143.271 252.361 119.691 252.361 91.9424C252.361 64.1932 219.283 24.215 219.283 24.215C219.283 24.215 204.735 8.50799 202.08 0H201.556C198.882 8.48929 184.353 24.215 184.353 24.215C184.353 24.215 151.293 64.1932 151.293 91.9424C151.293 119.691 168.235 143.271 201.556 143.271H202.098Z" fill="white"/>
<path d="M126.031 144C159.372 144 176.294 120.421 176.294 92.6719C176.294 64.9227 143.216 24.9445 143.216 24.9445C143.216 24.9445 128.668 9.23748 126.013 0.729492H125.489C122.797 9.23748 108.286 24.9445 108.286 24.9445C108.286 24.9445 75.2266 64.9227 75.2266 92.6719C75.2266 120.402 92.1678 144 125.489 144H126.031Z" fill="white"/>
<path fill-rule="evenodd" clip-rule="evenodd" d="M101.049 92.6719C101.049 120.421 84.1262 144 50.7861 144H50.2626C16.9412 144 0 120.402 0 92.6719C0 64.9227 33.0409 24.9445 33.0409 24.9445C33.0409 24.9445 47.5512 9.23748 50.2439 0.729492H50.7674C53.4227 9.23748 67.9704 24.9445 67.9704 24.9445C67.9704 24.9445 101.049 64.9227 101.049 92.6719ZM72.9819 99.6091C72.9819 111.52 65.4649 121.636 50.6741 121.636H50.431C35.6402 121.636 28.1233 111.52 28.1233 99.6091C28.1233 87.7166 42.8019 70.551 42.8019 70.551C42.8019 70.551 49.3839 63.3894 50.431 59.3504H50.6741C51.7213 63.3707 58.3033 70.551 58.3033 70.551C58.3033 70.551 72.9819 87.6979 72.9819 99.6091Z" fill="#5FACCE"/>
<path fill-rule="evenodd" clip-rule="evenodd" d="M252.361 91.9424C252.361 119.691 235.438 143.271 202.098 143.271H201.556C168.235 143.271 151.293 119.691 151.293 91.9424C151.293 64.1932 184.353 24.215 184.353 24.215C184.353 24.215 198.882 8.48929 201.556 0H202.08C204.735 8.50799 219.283 24.215 219.283 24.215C219.283 24.215 252.361 64.1932 252.361 91.9424ZM224.294 98.8795C224.294 110.791 216.777 120.907 201.986 120.907H201.743C186.952 120.907 179.435 110.791 179.435 98.8795C179.435 86.9684 194.114 69.8028 194.114 69.8028C194.114 69.8028 200.696 62.6224 201.743 58.6022H201.986C203.033 62.6224 209.615 69.8028 209.615 69.8028C209.615 69.8028 224.294 86.9684 224.294 98.8795Z" fill="#F2DB13"/>
<path fill-rule="evenodd" clip-rule="evenodd" d="M176.294 92.6719C176.294 120.421 159.372 144 126.031 144H125.489C92.1678 144 75.2266 120.402 75.2266 92.6719C75.2266 64.9227 108.286 24.9445 108.286 24.9445C108.286 24.9445 122.797 9.23748 125.489 0.729492H126.013C128.668 9.23748 143.216 24.9445 143.216 24.9445C143.216 24.9445 176.294 64.9227 176.294 92.6719ZM148.227 99.6091C148.227 111.52 140.71 121.636 125.919 121.636H125.676C110.885 121.636 103.368 111.52 103.368 99.6091C103.368 87.7166 118.047 70.551 118.047 70.551C118.047 70.551 124.629 63.3894 125.676 59.3504H125.919C126.966 63.3707 133.548 70.551 133.548 70.551C133.548 70.551 148.227 87.6979 148.227 99.6091Z" fill="#F29624"/>
<path d="M290.654 17.3896H332.764C349.163 17.3896 361.355 19.8205 369.302 24.7009C377.249 29.5813 381.232 37.1544 381.232 47.4575C381.232 54.2265 379.493 60.0044 376.033 64.7914C372.574 69.5783 367.993 72.6635 362.327 74.0285V74.8513C369.825 76.8333 375.229 80.1431 378.595 84.7617C381.942 89.3804 383.625 95.3826 383.625 102.769C383.625 113.708 379.511 122.347 371.284 128.648C363.056 134.969 351.837 138.11 337.645 138.11H290.654V17.3896ZM323.265 63.7067H333.082C337.757 63.7067 341.384 62.7344 343.946 60.8271C346.508 58.9011 347.779 56.0403 347.779 52.2444C347.779 45.4754 342.656 42.0909 332.409 42.0909H323.246V63.7067H323.265ZM323.265 87.5853V112.941H334.746C344.937 112.941 350.023 108.659 350.023 100.058C350.023 96.0371 348.658 92.9519 345.928 90.8015C343.198 88.6511 339.253 87.5853 334.073 87.5853H323.265Z" fill="#3E3E3E"/>
<path d="M485.272 91.1199C485.272 106.434 481.158 118.364 472.93 126.909C464.703 135.473 453.184 139.755 438.375 139.755C424.182 139.755 412.87 135.38 404.493 126.629C396.097 117.878 391.908 106.041 391.908 91.1199C391.908 75.8803 396.022 64.0253 404.249 55.5734C412.477 47.1215 424.014 42.8955 438.88 42.8955C448.08 42.8955 456.195 44.8589 463.244 48.7483C470.294 52.6564 475.735 58.266 479.55 65.5586C483.364 72.8698 485.272 81.3965 485.272 91.1199ZM424.669 91.1199C424.669 99.1604 425.734 105.275 427.885 109.501C430.035 113.708 433.644 115.821 438.693 115.821C443.704 115.821 447.238 113.708 449.314 109.501C451.371 105.293 452.418 99.1604 452.418 91.1199C452.418 83.1355 451.371 77.1145 449.276 73.0381C447.182 68.9618 443.611 66.9236 438.543 66.9236C433.588 66.9236 430.035 68.9431 427.885 72.982C425.734 77.0397 424.669 83.0981 424.669 91.1199Z" fill="#3E3E3E"/>
<path d="M555.973 138.11V87.081C555.973 80.8543 555.076 76.1608 553.281 73.0007C551.486 69.8406 548.625 68.2512 544.66 68.2512C539.219 68.2512 535.274 70.4203 532.861 74.7771C530.431 79.134 529.234 86.5948 529.234 97.1597V138.11H496.941V44.5597H521.306L525.363 56.1156H527.252C530.001 51.7027 533.815 48.4117 538.696 46.2052C543.557 43.9988 549.167 42.8955 555.506 42.8955C565.846 42.8955 573.905 45.8874 579.665 51.8897C585.424 57.892 588.304 66.3439 588.304 77.2267V138.091H555.973V138.11Z" fill="#3E3E3E"/>
<path d="M660.593 68.7552H640.697V138.11H608.404V68.7552H596.025V52.8986L609.077 44.9703V43.3996C609.077 31.077 611.602 22.2138 616.632 16.8098C621.68 11.4245 629.758 8.7132 640.884 8.7132C645.166 8.7132 649.224 9.03108 653.057 9.70424C656.871 10.3587 661.341 11.518 666.389 13.1635L659.452 34.0501C655.488 32.9469 651.617 32.4046 647.803 32.4046C645.334 32.4046 643.521 33.1526 642.399 34.6672C641.258 36.1818 640.697 38.6501 640.697 42.0533V44.5215H660.593V68.7552ZM672.635 21.2788C672.635 16.4358 673.981 12.8269 676.674 10.4522C679.366 8.09614 683.723 6.89941 689.725 6.89941C695.728 6.89941 700.103 8.11484 702.852 10.527C705.601 12.9391 706.985 16.5293 706.985 21.2601C706.985 30.7217 701.225 35.4713 689.725 35.4713C678.338 35.4713 672.635 30.7404 672.635 21.2788ZM705.75 138.11H673.476V44.5589H705.75V138.11Z" fill="#3E3E3E"/>
<path d="M777.928 42.9141C780.733 42.9141 783.407 43.1385 785.931 43.5686L787.745 43.9052L784.865 74.3656C782.229 73.7112 778.564 73.3746 773.889 73.3746C766.84 73.3746 761.716 74.9827 758.537 78.1989C755.34 81.4151 753.75 86.0711 753.75 92.1109V138.091H721.457V44.5596H745.467L750.516 59.5H752.086C754.779 54.5448 758.537 50.5433 763.362 47.4766C768.167 44.4287 773.029 42.9141 777.928 42.9141Z" fill="#3E3E3E"/>
<path d="M839.205 139.755C823.629 139.755 811.531 135.623 802.911 127.321C794.29 119.037 789.99 107.238 789.99 91.9427C789.99 76.1421 793.991 64.0253 801.957 55.5734C809.941 47.1215 821.329 42.8955 836.139 42.8955C850.237 42.8955 861.12 46.5792 868.805 53.9092C876.491 61.2578 880.324 71.8414 880.324 85.6599V100.02H822.601C822.825 105.256 824.732 109.351 828.341 112.324C831.95 115.297 836.868 116.774 843.076 116.774C848.742 116.774 853.959 116.232 858.727 115.166C863.495 114.1 868.656 112.268 874.209 109.669V132.874C869.142 135.455 863.906 137.25 858.521 138.241C853.117 139.269 846.685 139.755 839.205 139.755ZM837.298 64.8667C833.502 64.8667 830.323 66.0634 827.761 68.4569C825.2 70.8504 823.704 74.6088 823.255 79.7323H850.985C850.873 75.2259 849.602 71.617 847.152 68.9244C844.721 66.213 841.43 64.8667 837.298 64.8667Z" fill="#3E3E3E"/>
</svg>
