<svg width="883" height="144" viewBox="0 0 883 144" fill="none" xmlns="http://www.w3.org/2000/svg">
<mask id="mask0_1418_1044" style="mask-type:alpha" maskUnits="userSpaceOnUse" x="129" y="0" width="114" height="144">
<path d="M129.521 0.171875H242.031V144H129.521V0.171875Z" fill="white"/>
</mask>
<g mask="url(#mask0_1418_1044)">
<path fill-rule="evenodd" clip-rule="evenodd" d="M129.521 72.0793C129.521 28.3516 152.779 0.171875 185.679 0.171875C218.58 0.171875 242.031 28.3516 242.031 72.0793C242.031 115.823 218.58 144.003 185.679 144.003C152.578 144.003 129.521 115.823 129.521 72.0793ZM212.868 72.0793C212.868 43.5209 202.621 26.974 185.679 26.974C168.738 26.974 158.684 43.5209 158.684 72.0793C158.684 100.646 168.738 117.209 185.679 117.209C202.621 117.209 212.868 100.646 212.868 72.0793Z" fill="#1877EE"/>
</g>
<path fill-rule="evenodd" clip-rule="evenodd" d="M265.77 3.12891H290.397L333.939 81.5374H334.342V3.12891H362.505V141.039H337.685L294.135 62.4287H293.748V141.039H265.77V3.12891Z" fill="#1877EE"/>
<path fill-rule="evenodd" clip-rule="evenodd" d="M643.08 3.12891H697.651C726.814 3.12891 744.73 20.0786 744.73 47.6622C744.73 67.3589 735.087 82.3349 717.759 89.0375V89.4161L745.922 141.039H714.601L688.201 92.574H672.243V141.039H643.08V3.12891ZM694.3 65.78C708.091 65.78 715.575 59.4802 715.575 47.4527C715.575 35.6427 708.301 29.9149 694.3 29.9149H672.243V65.78H694.3Z" fill="#1877EE"/>
<path fill-rule="evenodd" clip-rule="evenodd" d="M763.891 3.12891V29.9149H808.617V141.039H837.772V29.9149H882.297V3.12891H763.891Z" fill="#1877EE"/>
<mask id="mask1_1418_1044" style="mask-type:alpha" maskUnits="userSpaceOnUse" x="0" y="0" width="883" height="144">
<path d="M0 144H882.303V0H0V144Z" fill="white"/>
</mask>
<g mask="url(#mask1_1418_1044)">
<path fill-rule="evenodd" clip-rule="evenodd" d="M519.713 31.9894H619.349V3.125H519.713V31.9894Z" fill="#1877EE"/>
<path fill-rule="evenodd" clip-rule="evenodd" d="M519.316 141.035H619.347V112.179H519.316V141.035Z" fill="#1877EE"/>
<path fill-rule="evenodd" clip-rule="evenodd" d="M488.857 86.5127H588.493V57.6562H488.857V86.5127Z" fill="#1877EE"/>
<path fill-rule="evenodd" clip-rule="evenodd" d="M470.016 99.0127C465.835 112.442 457.722 119.193 445.63 119.193C436.173 119.193 428.391 115.157 422.268 107.077C416.17 99.0047 413.116 86.5582 413.116 69.7455C413.116 55.422 416.266 44.329 422.574 36.4341C428.874 28.5635 436.551 24.6241 445.63 24.6241C453.63 24.6241 459.809 27.2907 464.143 32.6076C465.98 34.8552 467.462 37.4411 468.735 40.2446L494.618 31.9309C491.67 24.6886 487.36 18.4533 481.584 13.2975C471.667 4.42784 459.615 -0.00292969 445.437 -0.00292969C429.14 -0.00292969 415.114 6.16793 403.361 18.5177C391.599 30.8594 385.734 47.9461 385.734 69.7455C385.734 94.5658 391.285 113.119 402.378 125.396C413.471 137.681 427.891 143.82 445.63 143.82C460.864 143.82 473.206 139.228 482.663 130.028C488.858 124.011 493.483 116.486 496.568 107.536L470.016 99.0127Z" fill="#1877EE"/>
<path fill-rule="evenodd" clip-rule="evenodd" d="M84.2852 99.0127C80.1041 112.442 71.9999 119.193 59.8918 119.193C50.4422 119.193 42.6601 115.157 36.5537 107.076C30.4393 99.0047 27.3941 86.5582 27.3941 69.7374C27.3941 55.422 30.544 44.329 36.8357 36.4341C43.1515 28.5635 50.8369 24.6241 59.8918 24.6241C67.9074 24.6241 74.0863 27.2906 78.4204 32.6076C80.2572 34.8552 81.7395 37.4411 83.0043 40.2446L108.904 31.9309C105.948 24.6886 101.63 18.4533 95.8616 13.2975C85.9447 4.42784 73.8849 -0.00292969 59.6984 -0.00292969C43.4093 -0.00292969 29.3839 6.17598 17.6303 18.5177C5.87669 30.8594 0.00390625 47.9461 0.00390625 69.7374C0.00390625 94.5658 5.54639 113.118 16.6475 125.396C27.7486 137.681 42.1607 143.828 59.8918 143.828C75.1336 143.828 87.4753 139.22 96.9411 130.028C103.136 124.01 107.752 116.486 110.846 107.536L84.2852 99.0127Z" fill="#1877EE"/>
</g>
</svg>
