<svg width="405" height="144" viewBox="0 0 405 144" fill="none" xmlns="http://www.w3.org/2000/svg">
<path d="M2.88086 0V111.655L17.2808 111.711V58.5415H51.8962V44.4738H17.2254V14.0123H62.3639V0H2.88086ZM88.1731 22.7077C90.6702 22.7077 93.0651 21.7157 94.8308 19.95C96.5965 18.1843 97.5885 15.7894 97.5885 13.2923C97.5885 10.7952 96.5965 8.40035 94.8308 6.63463C93.0651 4.8689 90.6702 3.87692 88.1731 3.87692C85.676 3.87692 83.2812 4.8689 81.5154 6.63463C79.7497 8.40035 78.7577 10.7952 78.7577 13.2923C78.7577 15.7894 79.7497 18.1843 81.5154 19.95C83.2812 21.7157 85.676 22.7077 88.1731 22.7077ZM80.9177 36.72V111.711H95.3177V36.72H80.9177Z" fill="black"/>
<path fill-rule="evenodd" clip-rule="evenodd" d="M148.541 34.5605C129.489 34.5605 116.197 50.6775 116.197 69.8405C116.197 89.0035 129.489 105.12 148.541 105.12C157.292 105.12 164.492 101.797 169.754 96.2589V106.228C169.79 109.207 169.236 112.163 168.123 114.926C167.01 117.69 165.361 120.205 163.27 122.327C161.179 124.449 158.688 126.135 155.941 127.288C153.195 128.442 150.247 129.039 147.268 129.046C142.671 129.046 138.129 127.274 134.529 124.726L127.329 137.188C132.896 140.786 139.332 142.816 145.957 143.062C152.581 143.308 159.149 141.761 164.968 138.585C170.787 135.409 175.641 130.722 179.018 125.017C182.394 119.312 184.169 112.802 184.154 106.172V36.7758H169.754V43.4774C164.492 37.9389 157.292 34.6158 148.541 34.6158V34.5605ZM130.541 69.8405C130.541 57.9328 139.624 48.5728 150.148 48.5728C160.671 48.5728 169.698 57.9882 169.698 69.8405C169.698 81.7482 160.615 91.0528 150.148 91.0528C139.624 91.0528 130.541 81.7482 130.541 69.8405Z" fill="black"/>
<path d="M235.883 48.573C231.764 48.6457 227.84 50.3367 224.959 53.2802C222.078 56.2238 220.471 60.1832 220.486 64.3022V111.711H206.086V36.7207H220.486V43.5884C222.64 40.733 225.439 38.4269 228.654 36.8581C231.868 35.2893 235.408 34.5021 238.984 34.5607C249.064 34.5607 256.818 39.5453 261.249 47.1884C263.721 43.3568 267.104 40.1979 271.096 37.9942C275.088 35.7905 279.563 34.6108 284.123 34.5607C300.461 34.5607 310.707 47.7422 310.707 64.0807V111.711H296.418V64.2468C296.433 60.1278 294.827 56.1684 291.945 53.2249C289.064 50.2813 285.14 48.5903 281.021 48.5176C276.903 48.5903 272.979 50.2813 270.097 53.2249C267.216 56.1684 265.609 60.1278 265.624 64.2468V111.656H251.224V64.2468C251.24 60.1372 249.641 56.186 246.771 53.244C243.902 50.302 239.992 48.6047 235.883 48.5176V48.573Z" fill="black"/>
<path fill-rule="evenodd" clip-rule="evenodd" d="M387.304 45.2497C384.034 41.84 380.102 39.1334 375.75 37.2954C371.398 35.4574 366.717 34.5268 361.993 34.5605C340.614 34.5605 325.439 52.6158 325.439 74.2158C325.439 95.8158 340.614 113.871 361.993 113.871C366.716 113.895 371.394 112.96 375.745 111.122C380.095 109.285 384.028 106.583 387.304 103.181V111.711H401.648V36.7205H387.248V45.2497H387.304ZM339.784 74.2158C339.784 59.9266 350.75 48.5728 363.544 48.5728C376.282 48.5728 387.304 59.9266 387.304 74.2158C387.304 88.5051 376.337 99.8035 363.544 99.8035C350.805 99.8035 339.784 88.5051 339.784 74.2158Z" fill="black"/>
</svg>
