<svg width="1310" height="144" viewBox="0 0 1310 144" fill="none" xmlns="http://www.w3.org/2000/svg">
<path d="M103.933 4.56153V22.8098C103.933 23.9996 103.139 24.7932 101.95 24.7932H23.6025V62.0833H88.2643C89.4541 62.0833 90.2477 62.8757 90.2477 64.0656V82.3149C90.2477 83.5047 89.4541 84.2973 88.2643 84.2973H23.6025V139.438C23.6025 140.629 22.81 141.421 21.6191 141.421H1.98233C0.79249 141.421 0 140.629 0 139.438V4.56153C0 3.3717 0.79249 2.57812 1.98233 2.57812H101.95C103.139 2.57812 103.933 3.3717 103.933 4.56153Z" fill="#61778C"/>
<path d="M222.244 82.7101C215.005 62.6771 206.972 42.6441 198.739 24.3959H194.078C185.847 42.6441 177.715 62.6771 170.475 82.7101H222.244ZM263.799 141.421H242.177C240.988 141.421 240.194 140.825 239.897 139.636C237.02 128.231 233.552 116.231 229.584 104.131H163.235C159.269 116.231 155.798 128.231 153.021 139.636C152.724 140.825 151.93 141.421 150.74 141.421H129.914C128.526 141.421 127.731 140.629 128.128 139.239C140.624 95.0091 159.666 46.2136 178.905 5.1565C179.798 3.27239 180.89 2.57812 182.774 2.57812H210.938C212.822 2.57812 213.914 3.27239 214.807 5.1565C234.245 46.1154 252.988 95.0091 265.583 139.239C265.981 140.629 265.187 141.421 263.799 141.421Z" fill="#61778C"/>
<path d="M299.299 73.1905C299.299 30.1478 327.662 0 368.127 0H371.1C396.49 0 416.126 12.8918 426.539 31.5363C427.233 32.7272 427.035 33.7184 425.845 34.3144L408.391 42.9413C407.2 43.5362 405.711 43.5362 404.919 42.0494C397.58 29.3553 386.572 22.6114 370.308 22.6114H367.332C341.845 22.6114 324.29 42.843 324.29 72.1994C324.29 101.654 341.547 121.389 367.332 121.389H370.308C386.97 121.389 396.687 115.735 404.126 107.107C405.118 106.016 406.209 105.818 407.399 106.413L425.349 115.14C426.044 115.537 426.34 116.032 426.34 116.529C426.34 117.024 426.142 117.422 425.747 118.016C414.738 134.083 394.904 144 370.705 144H367.729C326.573 144 299.299 115.735 299.299 73.1905Z" fill="#61778C"/>
<path d="M584.519 121.19V139.438C584.519 140.629 583.725 141.421 582.535 141.421H478.402C477.212 141.421 476.42 140.629 476.42 139.438V4.56153C476.42 3.3717 477.212 2.57812 478.402 2.57812H580.75C581.941 2.57812 582.733 3.3717 582.733 4.56153V22.8098C582.733 23.9996 581.941 24.7932 580.75 24.7932H500.022V60.8912H565.675C566.865 60.8912 567.66 61.6859 567.66 62.8757V80.9253C567.66 82.1151 566.865 82.9087 565.675 82.9087H500.022V119.206H582.535C583.725 119.206 584.519 120 584.519 121.19Z" fill="#61778C"/>
<path d="M739.622 101.255C739.622 88.3634 731.092 82.5114 712.349 82.5114H665.637V119.801H712.349C731.39 119.801 739.622 114.247 739.622 101.255ZM705.704 24.1983H665.637V61.4872H705.704C723.654 61.4872 731.886 55.6352 731.886 42.8428C731.886 30.0481 723.654 24.1983 705.704 24.1983ZM763.821 103.339C763.821 127.636 745.175 141.421 712.248 141.421H644.017C642.827 141.421 642.035 140.629 642.035 139.438V4.56153C642.035 3.3717 642.827 2.57812 644.017 2.57812H706.2C738.233 2.57812 755.686 15.2723 755.686 38.4785C755.686 53.7511 747.952 63.7687 732.282 68.4287C754.299 73.0898 763.821 86.2807 763.821 103.339Z" fill="#61778C"/>
<path d="M879.75 121.389C908.208 121.389 926.165 101.851 926.165 72.0007C926.165 42.1477 908.208 22.6114 879.75 22.6114H876.77C848.31 22.6114 830.36 42.1477 830.36 72.0007C830.36 101.851 848.31 121.389 876.77 121.389H879.75ZM805.369 72.0007C805.369 30.1477 833.138 0 876.77 0H879.75C923.382 0 951.152 30.1477 951.152 72.0007C951.152 113.851 923.382 144 879.75 144H876.77C833.138 144 805.369 113.851 805.369 72.0007Z" fill="#61778C"/>
<path d="M1065.79 121.389C1094.26 121.389 1112.21 101.851 1112.21 72.0007C1112.21 42.1477 1094.26 22.6114 1065.79 22.6114H1062.82C1034.35 22.6114 1016.41 42.1477 1016.41 72.0007C1016.41 101.851 1034.35 121.389 1062.82 121.389H1065.79ZM991.41 72.0007C991.41 30.1477 1019.18 0 1062.82 0H1065.79C1109.43 0 1137.2 30.1477 1137.2 72.0007C1137.2 113.851 1109.43 144 1065.79 144H1062.82C1019.18 144 991.41 113.851 991.41 72.0007Z" fill="#61778C"/>
<path d="M1308.27 141.421H1282.68C1281 141.421 1280.3 141.024 1279.21 139.735C1261.26 118.611 1240.04 97.5874 1221.99 82.1151H1210.48V139.438C1210.48 140.629 1209.69 141.421 1208.5 141.421H1188.86C1187.67 141.421 1186.88 140.629 1186.88 139.438V4.56153C1186.88 3.3717 1187.67 2.57812 1188.86 2.57812H1208.5C1209.69 2.57812 1210.48 3.3717 1210.48 4.56153V59.3062H1222.18C1241.53 41.8505 1259.38 23.0085 1273.96 4.0649C1274.94 2.77571 1275.74 2.57812 1276.93 2.57812H1301.13C1302.32 2.57812 1302.92 3.17301 1302.92 3.96659C1302.92 4.36285 1302.71 4.85844 1302.22 5.45336C1280.9 31.7347 1259.77 53.2555 1240.24 69.9165C1264.83 90.742 1288.14 113.949 1309.36 138.941C1310.45 140.23 1309.86 141.421 1308.27 141.421Z" fill="#61778C"/>
</svg>
