<svg width="614" height="144" viewBox="0 0 614 144" fill="none" xmlns="http://www.w3.org/2000/svg">
<path d="M71.5625 89.9267V3.87598H99.0584V86.3841C99.0584 92.1924 100.31 93.6106 106.14 93.6106H108.505L111.742 116.378C109.66 116.66 101.141 117.279 96.003 117.279C80.8656 117.279 71.5625 111.894 71.5625 89.9267Z" fill="#324354"/>
<path d="M339.812 77.3156C339.812 67.8231 338.147 59.4617 326.203 59.4617C313.429 59.4617 309.676 66.1226 309.676 77.3156C309.676 88.5086 312.455 94.6047 326.203 94.6047C337.869 94.6047 339.812 86.8081 339.812 77.3156ZM282.18 37.3679L303.563 35.6665L305.651 42.1718C309.953 38.0589 317.455 33.9512 333.562 33.9512C361.34 33.9512 367.724 53.935 367.724 76.1797C367.724 98.5707 360.643 118.272 331.896 118.272C319.122 118.272 313.149 115.295 309.677 112.035V140.375H282.181L282.18 37.3679Z" fill="#324354"/>
<path d="M465.82 37.3686L487.203 35.6671L489.982 44.1558C493.454 39.3362 503.038 35.2285 514.427 34.8047V61.8102C496.095 61.9472 493.315 67.536 493.315 78.5926V116.995H465.82V37.3686Z" fill="#324354"/>
<path d="M522.096 34.8497H536.259L540.701 18.365L561.951 13.6865V34.8497H579.309V61.8406H561.951V85.255C561.951 90.7809 562.786 93.612 571.391 93.612H579.309V116.992C575.144 117.274 570.56 117.417 565.422 117.417C542.229 117.417 534.593 109.908 534.593 89.505V61.8414H522.096V34.8497Z" fill="#324354"/>
<path d="M609.832 116.977H586.93V93.6064H609.832V116.977Z" fill="#FA5959"/>
<path d="M3.625 35.7946H18.6192V34.2357C18.6192 13.8327 26.1212 3.62402 51.9503 3.62402C58.755 3.62402 60.0014 3.76128 63.3343 4.05169V26.8662H55.6988C47.7861 26.8662 46.1199 28.85 46.1199 34.0931V35.7946H63.3343V59.5987H46.1199V116.991H18.6192V59.5987H3.625V35.7946Z" fill="#324354"/>
<path d="M154.804 56.9666C166.122 56.9666 166.952 62.4587 167.363 69.081H139.07C140.174 61.3329 143.764 56.9666 154.804 56.9666ZM171.594 92.763C167.048 95.4781 164.703 96.0865 155.63 96.0865C144.867 96.0865 140.727 92.1781 139.347 85.5607H192.208C193.173 56.9666 190.828 33.8691 155.63 33.8691C120.298 33.8691 112.844 53.7262 112.844 75.8397C112.844 98.5181 120.298 118.482 155.63 118.482C169.564 118.482 178.351 115.846 187.677 109.662L171.594 92.763Z" fill="#324354"/>
<path d="M246.725 117.028L233.24 97.3611L219.759 117.028H189.021L217.796 75.1946L191.662 37.3953L222.734 37.3711L233.373 52.7986L244.022 37.3757L275.438 37.3953L248.807 75.0094L277.668 117.028H246.725Z" fill="#324354"/>
<path d="M432.02 77.0327C432.02 66.8288 429.522 59.4609 416.606 59.4609C403.694 59.4609 401.192 66.8288 401.192 77.0327C401.192 87.0953 403.693 94.6043 416.606 94.6043C429.523 94.6043 432.02 87.0953 432.02 77.0327ZM373.418 76.1806C373.418 49.263 385.5 33.9521 416.606 33.9521C447.712 33.9521 459.655 49.263 459.655 76.1806C459.655 103.108 447.712 118.555 416.606 118.555C385.5 118.555 373.418 103.108 373.418 76.1806Z" fill="#324354"/>
</svg>
