<svg width="480" height="144" viewBox="0 0 480 144" fill="none" xmlns="http://www.w3.org/2000/svg">
<path d="M71.9965 0.238281C32.3545 0.238281 0.216797 32.3751 0.216797 72.0171C0.216797 111.661 32.3545 143.795 71.9965 143.795C111.643 143.795 143.777 111.661 143.777 72.0171C143.777 32.3777 111.643 0.24171 71.9957 0.24171L71.9965 0.238281ZM104.914 103.764C103.629 105.873 100.869 106.541 98.7599 105.247C81.9068 94.9526 60.6908 92.6211 35.7051 98.3297C33.2974 98.8783 30.8974 97.3697 30.3488 94.9611C29.7977 92.5526 31.3002 90.1526 33.7139 89.604C61.0568 83.3571 84.5108 86.0468 103.431 97.6097C105.54 98.904 106.209 101.655 104.914 103.764ZM113.7 84.2194C112.08 86.8526 108.634 87.684 106.003 86.064C86.7085 74.2046 57.2974 70.77 34.4759 77.6974C31.5162 78.5914 28.3902 76.9234 27.4919 73.9688C26.6005 71.0091 28.2694 67.8891 31.2239 66.9891C57.2922 59.0794 89.6999 62.9108 111.857 76.5266C114.489 78.1466 115.32 81.5914 113.7 84.2194ZM114.454 63.8674C91.3199 50.1266 53.1514 48.8631 31.0637 55.5669C27.5168 56.6426 23.7659 54.6403 22.6911 51.0934C21.6162 47.5448 23.6168 43.7966 27.1662 42.7183C52.5214 35.0211 94.6714 36.5083 121.306 52.32C124.503 54.2134 125.549 58.3337 123.655 61.5197C121.769 64.71 117.638 65.7617 114.458 63.8674H114.454ZM195.506 66.5006C183.111 63.5451 180.908 61.4708 180.908 57.1123C180.908 52.9946 184.783 50.2234 190.551 50.2234C196.14 50.2234 201.677 52.3277 207.488 56.6597C207.66 56.7908 207.883 56.8431 208.097 56.8088C208.32 56.7763 208.508 56.6571 208.637 56.478L214.688 47.9477C214.937 47.5963 214.868 47.112 214.534 46.8437C207.617 41.2954 199.834 38.598 190.731 38.598C177.351 38.598 168 46.6286 168 58.1186C168 70.44 176.066 74.8028 190.003 78.1706C201.857 80.9023 203.863 83.1908 203.863 87.2811C203.863 91.8154 199.817 94.6354 193.303 94.6354C186.068 94.6354 180.163 92.1926 173.563 86.484C173.4 86.3383 173.177 86.2783 172.971 86.2868C172.749 86.304 172.551 86.4068 172.414 86.5697L165.626 94.644C165.343 94.9868 165.377 95.484 165.703 95.7754C173.383 102.633 182.828 106.25 193.028 106.25C207.446 106.25 216.763 98.3726 216.763 86.1754C216.788 75.8837 210.626 70.1837 195.531 66.5117L195.506 66.5006ZM249.386 54.2777C243.137 54.2777 238.011 56.7394 233.777 61.7837V56.106C233.777 55.6577 233.417 55.2926 232.971 55.2926H221.871C221.426 55.2926 221.066 55.6577 221.066 56.106V119.193C221.066 119.638 221.426 120.007 221.871 120.007H232.971C233.417 120.007 233.777 119.638 233.777 119.193V99.2811C238.011 104.021 243.137 106.344 249.386 106.344C261 106.344 272.76 97.404 272.76 80.3134C272.777 63.2194 261.017 54.2768 249.394 54.2768L249.386 54.2777ZM259.851 80.3134C259.851 89.0126 254.494 95.0897 246.814 95.0897C239.229 95.0897 233.503 88.7383 233.503 80.3134C233.503 71.8877 239.229 65.538 246.814 65.538C254.366 65.5371 259.851 71.7505 259.851 80.3134ZM302.888 54.2777C287.931 54.2777 276.214 65.7943 276.214 80.4994C276.214 95.0468 287.854 106.438 302.708 106.438C317.717 106.438 329.469 94.9611 329.469 80.3134C329.469 65.7154 317.794 54.2794 302.888 54.2794V54.2777ZM302.888 95.1754C294.934 95.1754 288.934 88.7811 288.934 80.3091C288.934 71.7986 294.729 65.6228 302.708 65.6228C310.714 65.6228 316.749 72.0146 316.749 80.4951C316.749 89.004 310.92 95.1754 302.888 95.1754ZM361.406 55.2926H349.191V42.8074C349.191 42.36 348.831 41.9949 348.386 41.9949H337.286C336.84 41.9949 336.471 42.36 336.471 42.8074V55.2926H331.14C330.694 55.2926 330.334 55.6577 330.334 56.106V65.6434C330.334 66.0909 330.694 66.4568 331.14 66.4568H336.471V91.1383C336.471 101.107 341.434 106.164 351.231 106.164C355.208 106.164 358.509 105.341 361.62 103.575C361.877 103.438 362.031 103.164 362.031 102.873V93.7868C362.031 93.5126 361.886 93.2468 361.646 93.1011C361.406 92.9468 361.106 92.9383 360.857 93.0668C358.723 94.1383 356.657 94.6354 354.343 94.6354C350.786 94.6354 349.191 93.0154 349.191 89.3983V66.4611H361.406C361.851 66.4611 362.211 66.096 362.211 65.6477V56.1111C362.228 55.6628 361.868 55.2977 361.414 55.2977L361.406 55.2926ZM403.954 55.3414V53.808C403.954 49.2969 405.686 47.2851 409.56 47.2851C411.874 47.2851 413.734 47.7446 415.817 48.4389C416.074 48.5194 416.34 48.4791 416.546 48.3257C416.76 48.1723 416.88 47.9263 416.88 47.6657V38.3143C416.88 37.9569 416.657 37.6406 416.306 37.5351C414.111 36.8811 411.3 36.21 407.083 36.21C396.84 36.21 391.414 41.982 391.414 52.896V55.2446H386.083C385.637 55.2446 385.268 55.6097 385.268 56.0571V65.6434C385.268 66.0909 385.637 66.4568 386.083 66.4568H391.414V104.518C391.414 104.973 391.783 105.333 392.229 105.333H403.32C403.774 105.333 404.134 104.973 404.134 104.518V66.4594H414.497L430.371 104.518C428.571 108.513 426.797 109.31 424.38 109.31C422.426 109.31 420.36 108.727 418.26 107.57C418.063 107.467 417.823 107.45 417.617 107.51C417.403 107.587 417.223 107.741 417.137 107.947L413.374 116.201C413.194 116.595 413.348 117.05 413.726 117.255C417.651 119.381 421.191 120.29 425.571 120.29C433.766 120.29 438.3 116.467 442.286 106.198L461.537 56.4523C461.64 56.202 461.606 55.9191 461.451 55.6971C461.306 55.4768 461.057 55.344 460.791 55.344H449.237C448.886 55.344 448.577 55.5643 448.466 55.8891L436.628 89.6897L423.668 55.8669C423.548 55.5523 423.248 55.344 422.914 55.344H403.954V55.3414ZM379.286 55.2926H368.186C367.74 55.2926 367.371 55.6577 367.371 56.106V104.518C367.371 104.973 367.74 105.333 368.186 105.333H379.286C379.731 105.333 380.1 104.973 380.1 104.518V56.1094C380.1 55.6611 379.74 55.296 379.286 55.296V55.2926ZM373.8 33.2477C369.403 33.2477 365.837 36.8066 365.837 41.2029C365.837 45.6017 369.403 49.1649 373.8 49.1649C378.197 49.1649 381.754 45.6017 381.754 41.2029C381.754 36.8074 378.189 33.2477 373.8 33.2477ZM471.017 70.8591C466.629 70.8591 463.208 67.332 463.208 63.0488C463.208 58.7657 466.671 55.1983 471.06 55.1983C475.448 55.1983 478.868 58.7246 478.868 63.0043C478.868 67.2874 475.406 70.8591 471.017 70.8591ZM471.06 55.9748C467.057 55.9748 464.031 59.1549 464.031 63.0488C464.031 66.9411 467.04 70.0783 471.017 70.0783C475.02 70.0783 478.046 66.9008 478.046 63.0043C478.046 59.112 475.037 55.9748 471.06 55.9748ZM472.791 63.8074L475.003 66.9H473.134L471.146 64.0628H469.44V66.9H467.88V58.7023H471.531C473.443 58.7023 474.694 59.6769 474.694 61.3174C474.703 62.6614 473.923 63.4826 472.8 63.8074H472.791ZM471.471 60.1088H469.44V62.7017H471.471C472.483 62.7017 473.091 62.2054 473.091 61.404C473.091 60.5606 472.483 60.1088 471.471 60.1088Z" fill="#1ED760"/>
</svg>
