<svg width="573" height="144" viewBox="0 0 573 144" fill="none" xmlns="http://www.w3.org/2000/svg">
<mask id="mask0_1418_1081" style="mask-type:luminance" maskUnits="userSpaceOnUse" x="0" y="0" width="573" height="144">
<path d="M572.529 0H0V144H572.529V0Z" fill="white"/>
</mask>
<g mask="url(#mask0_1418_1081)">
<path d="M184.87 56.3109C184.87 46.0403 174.882 35.1323 157.6 35.1323C138.192 35.1323 116.872 49.3694 113.613 77.7728C110.284 106.459 128.134 119.209 146.125 119.209C164.116 119.209 173.537 112.197 183.17 102.847C174.882 92.4348 164.187 97.2514 162.133 98.3138C159.866 99.4471 156.962 101.005 151.012 101.005C144.071 101.005 136.988 97.8888 136.988 84.9267C181.47 80.5352 184.87 66.5814 184.87 56.3109ZM162.841 58.0108C162.558 61.1982 161.283 66.6522 138.758 69.698C143.504 52.8401 152.571 51.5652 156.75 51.5652C160.645 51.5652 163.124 54.6109 162.841 58.0108ZM87.4766 60.7732C87.4766 60.7732 77.9144 90.8057 77.1353 93.2848C76.8519 90.7349 69.8396 36.8323 69.8396 36.8323C53.5484 36.8323 44.8362 48.4486 40.2322 60.7024C40.2322 60.7024 28.6158 90.8057 27.6242 93.3556C27.5534 91.0182 25.8534 61.0566 25.8534 61.0566C24.8618 46.0403 11.1205 36.9031 0 36.9031L13.4579 118.572C30.5283 118.501 39.7364 106.955 44.5529 94.7014C44.5529 94.7014 54.8234 68.1397 55.2484 66.9356C55.3192 68.0689 62.6149 118.572 62.6149 118.572C79.756 118.572 88.9641 107.734 93.9223 95.9055L117.934 36.9031C101.005 36.9031 92.0807 48.4486 87.4766 60.7732ZM247.768 34.9907C237.214 34.9907 229.139 40.728 222.339 49.1569V49.0861L228.431 0C214.406 0 203.002 12.183 200.807 30.3158L190.182 117.934C198.257 117.934 206.827 115.597 211.431 109.647C215.54 114.959 221.702 119.209 230.839 119.209C254.497 119.209 270.717 91.7265 270.717 65.9439C270.576 42.4279 259.172 34.9907 247.768 34.9907ZM245.572 77.1353C243.093 91.514 235.089 101.289 227.368 101.289C219.577 101.289 216.248 97.818 216.248 97.818C217.735 85.21 218.656 77.4894 221.489 70.8313C224.323 64.1731 231.052 53.5484 238.064 53.5484C244.935 53.5484 248.051 62.6857 245.572 77.1353ZM329.79 36.9031H313.287L313.358 36.0531C314.491 25.2868 317.041 19.6203 325.47 18.6995C331.207 18.1328 333.757 15.1579 334.394 11.8997C334.89 9.34973 336.449 0.495819 336.449 0.495819C303.3 0.283325 292.887 14.5912 290.196 36.4073L290.125 36.9031H289.771C284.388 36.9031 278.438 42.9946 277.446 50.7152L277.092 53.5484H288.142L278.863 130.188L276.03 143.929C276.384 143.929 276.809 144 277.163 144C292.675 143.433 302.591 131.18 304.787 113.401L312.012 53.5484H317.182C322.282 53.5484 328.232 48.4486 329.295 39.9488L329.79 36.9031ZM415.638 35.4865C396.584 35.4865 378.593 49.5111 373.068 71.5396C367.544 93.5681 375.902 119.634 403.951 119.634C431.929 119.634 448.079 92.5057 448.079 69.9105C448.079 47.457 432.85 35.4865 415.638 35.4865ZM423.359 76.427C422.367 86.4142 417.975 101.572 405.934 101.572C393.822 101.572 395.522 83.8642 396.726 75.4353C398.001 66.4397 403.03 53.6193 413.867 53.6193C423.571 53.6193 424.492 65.1648 423.359 76.427ZM542.213 60.7732C542.213 60.7732 532.651 90.8057 531.872 93.2848C531.589 90.7349 524.576 36.8323 524.576 36.8323C508.285 36.8323 499.573 48.4486 494.969 60.7024C494.969 60.7024 483.353 90.8057 482.361 93.3556C482.29 91.0182 480.59 61.0566 480.59 61.0566C479.599 46.0403 465.857 36.9031 454.737 36.9031L468.124 118.572C485.194 118.501 494.402 106.955 499.219 94.7014C499.219 94.7014 509.489 68.1397 509.844 66.9356C509.985 68.0689 517.21 118.572 517.21 118.572C534.351 118.572 543.559 107.734 548.517 95.9055L572.529 36.9031C555.671 36.9031 546.747 48.4486 542.213 60.7732ZM345.373 0.495819L331.49 112.48L328.657 126.292C329.011 126.292 329.436 126.363 329.79 126.363C344.736 126.151 355.361 113.047 357.344 96.543L365.348 32.2991C367.756 12.6788 356.069 0.495819 345.373 0.495819Z" fill="#4353FF"/>
</g>
</svg>
