<svg width="740" height="144" viewBox="0 0 740 144" fill="none" xmlns="http://www.w3.org/2000/svg">
<path d="M185.937 3.07393H207.274V22.1935H185.937V3.07393ZM185.937 115.18H207.274V34.5621H185.937V115.18ZM271.531 34.5621H292.08V110.203C292.391 114.759 291.695 119.328 290.043 123.586C288.391 127.844 285.823 131.687 282.52 134.841C274.309 141.367 263.962 144.599 253.496 143.908C231.568 143.908 218.066 134.546 215.848 118.826H237.037C238.762 123.754 243.296 127.795 253.2 127.795C265.273 127.795 271.039 121.98 271.039 110.991V101.136H270.595C268.042 104.21 264.817 106.657 261.169 108.289C257.521 109.92 253.547 110.693 249.554 110.548C231.715 110.548 214.123 96.405 214.123 72.1113C214.123 47.8177 228.562 32.6895 248.962 32.6895C253.267 32.4763 257.556 33.3376 261.445 35.1957C265.333 37.0539 268.698 39.8505 271.236 43.3334H271.531V34.5621ZM272.024 71.4707C272.024 59.6935 265.717 49.6409 252.855 49.6409C242.064 49.6409 234.869 58.1166 234.869 71.6186C234.869 85.1205 242.064 93.2513 253.052 93.2513C266.653 93.2513 272.024 83.3465 272.024 71.4707ZM347.418 32.591C342.625 32.381 337.866 33.4983 333.666 35.8198C329.467 38.1412 325.989 41.5768 323.617 45.748H323.125V34.5621H302.28V115.18H323.617V69.5489C323.617 58.6094 330.516 51.07 339.928 51.07C341.856 50.9815 343.78 51.3102 345.568 52.0337C347.357 52.7571 348.969 53.8583 350.293 55.2619C351.617 56.6655 352.622 58.3384 353.24 60.1663C353.858 61.9942 354.074 63.934 353.874 65.8531V115.13H375.161V62.6501C375.161 45.1074 364.074 32.591 347.418 32.591ZM464.846 115.18H486.134V3.07393H464.846V115.18ZM498.256 115.18H521.022V69.0561H563.499V49.3452H521.022V22.3906H572.27V3.07393H498.355L498.256 115.18ZM581.387 22.1935H602.724V3.07393H581.387V22.1935ZM581.387 115.18H602.724V34.5621H581.387V115.18ZM717.885 91.2309H738.926C735.92 105.472 723.207 117.545 702.51 117.545C675.9 117.545 660.822 98.8689 660.822 74.9201C660.822 50.9714 676.984 32.591 700.243 32.591C726.114 32.591 739.911 52.3019 739.911 81.0305H681.814C683.391 93.3991 690.289 101.086 702.362 101.086C705.682 101.438 709.024 100.655 711.842 98.8654C714.661 97.0759 716.79 94.385 717.885 91.2309ZM682.159 66.2966H717.885C717.931 64.0273 717.52 61.7718 716.676 59.6647C715.832 57.5576 714.572 55.6421 712.972 54.0325C711.371 52.4229 709.463 51.1522 707.361 50.2961C705.259 49.4399 703.006 49.016 700.736 49.0496C689.501 49.0496 684.031 55.7513 682.159 66.2966ZM454.005 62.3544V115.18H435.477V104.092C431.584 111.385 423.601 117.101 409.754 117.101C393.295 117.101 381.715 108.478 381.715 92.4628C381.715 74.723 396.154 69.1054 413.992 66.5923C427.346 64.7197 433.703 63.6356 433.703 57.476C433.703 51.3163 428.923 47.9162 419.856 47.9162C410 47.9162 405.073 51.5627 404.334 59.2007H385.362C386.002 45.1074 396.498 32.7388 419.856 32.7388C443.213 32.7388 454.005 43.5305 454.005 62.3544ZM433.949 74.723C429.255 76.9964 424.286 78.6527 419.166 79.6507C408.029 82.1639 402.56 84.5785 402.56 92.1672C402.56 99.7558 407.487 102.368 415.125 102.368C427.346 102.368 434.097 94.8281 434.097 86.993L433.949 74.723ZM14.2057 108.133C16.9677 110.132 19.9628 111.786 23.1249 113.061V80.3406H0.999411C0.925798 85.6751 2.07827 90.9552 4.36797 95.7738C6.65767 100.592 10.0234 104.821 14.2057 108.133ZM7.40545 19.2369C5.14109 23.8288 4.02504 28.9017 4.15315 34.02C3.91766 39.1481 5.03953 44.2475 7.40545 48.8032C9.5091 52.3959 12.3672 55.4894 15.7826 57.8702C18.0618 59.3487 20.4697 60.6186 22.9771 61.6646V4.99575C20.6265 6.04238 18.3822 7.31303 16.2754 8.79009C12.5598 11.5494 9.52562 15.123 7.40545 19.2369ZM163.91 57.3774C159.735 54.7188 155.206 52.6617 150.457 51.2671C145.53 49.7395 139.863 48.3597 134.048 47.0785C129.81 46.1258 126.164 45.2388 123.108 44.4175C120.458 43.7034 117.896 42.6952 115.47 41.4116C113.636 40.4388 112.051 39.056 110.838 37.3709C109.813 35.6104 109.317 33.5915 109.409 31.5562C109.367 29.5705 109.856 27.6097 110.827 25.8768C111.797 24.1439 113.213 22.7021 114.928 21.7007C119.402 19.0871 124.536 17.8209 129.712 18.0542C134.968 17.8885 140.142 19.389 144.495 22.3413C146.529 23.8329 148.211 25.7539 149.42 27.9681C150.63 30.1822 151.337 32.6353 151.492 35.1534H173.47C173.375 30.0967 172.169 25.1228 169.938 20.5839C167.707 16.0451 164.505 12.0524 160.559 8.88865C151.619 2.59737 140.825 -0.50893 129.909 0.0680227C124.042 0.00422286 118.193 0.71671 112.514 2.18694C107.593 3.46293 102.949 5.63452 98.8147 8.59298C94.9861 11.38 91.8638 15.0254 89.6984 19.2369C87.4359 23.8295 86.32 28.9019 86.4461 34.02C86.2083 39.1483 87.3303 44.2483 89.6984 48.8032C91.8097 52.5183 94.7219 55.7166 98.2234 58.1659C102.032 60.6994 106.202 62.6432 110.592 63.9313C115.273 65.3603 120.152 66.6416 125.375 67.8242C129.712 68.7605 133.604 69.6967 137.005 70.5837C140.048 71.3206 143.005 72.3778 145.825 73.7375C148.03 74.783 149.955 76.3367 151.443 78.271C152.829 80.2598 153.521 82.6495 153.414 85.0712C153.494 87.4376 152.858 89.7731 151.591 91.7729C150.332 93.6543 148.642 95.2084 146.663 96.3064C144.499 97.5169 142.152 98.3658 139.715 98.8196C136.94 99.3642 134.117 99.6284 131.288 99.608C124.925 100.072 118.574 98.5569 113.105 95.2716C110.907 93.4691 109.119 91.2177 107.861 88.6682C106.603 86.1187 105.905 83.3298 105.812 80.4884H83.3909C83.3173 85.8229 84.4698 91.103 86.7595 95.9216C89.0492 100.74 92.415 104.969 96.5972 108.281C104.974 114.851 116.883 118.136 132.323 118.136C138.254 118.189 144.161 117.393 149.866 115.771C154.863 114.218 159.526 111.744 163.614 108.478C167.494 105.489 170.631 101.644 172.78 97.2427C175.07 92.4809 176.218 87.2501 176.131 81.9668C176.333 76.7514 175.179 71.5727 172.78 66.9372C170.622 63.0934 167.582 59.8169 163.91 57.3774ZM52.4941 80.3406H30.0237C29.9501 85.6751 31.1026 90.9552 33.3923 95.7738C35.682 100.592 39.0477 104.821 43.23 108.133C52.9881 114.87 64.6391 118.322 76.4921 117.988V99.3123C70.618 99.5455 64.8061 98.0368 59.7872 94.976C57.6164 93.1815 55.8459 90.9519 54.5897 88.4311C53.3336 85.9103 52.6197 83.1543 52.4941 80.3406ZM59.1465 2.18694C64.8137 0.7403 70.6434 0.0281572 76.4921 0.0680227V18.3006C71.3161 18.0673 66.1828 19.3335 61.709 21.9471C59.9938 22.9485 58.5776 24.3903 57.6072 26.1232C56.6368 27.8561 56.1475 29.8169 56.1899 31.8026C56.1121 33.8427 56.6255 35.862 57.6682 37.6173C58.881 39.3024 60.4661 40.6851 62.3003 41.658C64.7524 42.8602 67.3307 43.7857 69.9875 44.4175L76.7385 46.093V68.5141L72.205 67.5285C67.2773 66.3459 62.3496 65.0647 57.4218 63.6356C53.0434 62.3587 48.8881 60.414 45.1025 57.8702C41.5742 55.4367 38.6428 52.2358 36.5283 48.5075C34.2023 44.0258 33.0816 39.0164 33.276 33.9708C33.1499 28.8526 34.2658 23.7802 36.5283 19.1876C38.6156 15.0253 41.6339 11.4 45.3489 8.59298C49.5129 5.62359 54.1911 3.45157 59.1465 2.18694ZM613.072 34.5621V54.273V115.18H634.409V54.273H660.575V34.5621H613.072Z" fill="black"/>
</svg>
