<svg width="427" height="145" viewBox="0 0 427 145" fill="none" xmlns="http://www.w3.org/2000/svg">
<path d="M181.924 74.5969C181.924 94.5847 166.287 109.313 147.098 109.313C127.908 109.313 112.271 94.5847 112.271 74.5969C112.271 54.4682 127.908 39.8804 147.098 39.8804C166.287 39.8804 181.924 54.4682 181.924 74.5969ZM166.678 74.5969C166.678 62.1065 157.616 53.5604 147.098 53.5604C136.579 53.5604 127.517 62.1065 127.517 74.5969C127.517 86.9621 136.579 95.6334 147.098 95.6334C157.616 95.6334 166.678 86.9465 166.678 74.5969Z" fill="#EA4335"/>
<path d="M257.055 74.5969C257.055 94.5847 241.418 109.313 222.228 109.313C203.039 109.313 187.402 94.5847 187.402 74.5969C187.402 54.4838 203.039 39.8804 222.228 39.8804C241.418 39.8804 257.055 54.4682 257.055 74.5969ZM241.809 74.5969C241.809 62.1065 232.747 53.5604 222.228 53.5604C211.71 53.5604 202.648 62.1065 202.648 74.5969C202.648 86.9621 211.71 95.6334 222.228 95.6334C232.747 95.6334 241.809 86.9465 241.809 74.5969Z" fill="#FBBC05"/>
<path d="M329.054 41.9778V104.305C329.054 129.943 313.934 140.414 296.059 140.414C279.233 140.414 269.106 129.16 265.287 119.957L278.56 114.432C280.924 120.082 286.715 126.75 296.044 126.75C307.485 126.75 314.576 119.691 314.576 106.402V101.409H314.044C310.631 105.619 304.058 109.298 295.762 109.298C278.404 109.298 262.501 94.1778 262.501 74.7221C262.501 55.1256 278.404 39.8804 295.762 39.8804C304.042 39.8804 310.616 43.5586 314.044 47.6438H314.576V41.9934H329.054V41.9778ZM315.656 74.7221C315.656 62.4978 307.501 53.5604 297.124 53.5604C286.605 53.5604 277.793 62.4978 277.793 74.7221C277.793 86.8212 286.605 95.6334 297.124 95.6334C307.501 95.6334 315.656 86.8212 315.656 74.7221Z" fill="#4285F4"/>
<path d="M352.924 5.4458V107.185H338.055V5.4458H352.924Z" fill="#34A853"/>
<path d="M410.868 86.023L422.701 93.9117C418.882 99.5621 409.678 109.298 393.776 109.298C374.054 109.298 359.325 94.0526 359.325 74.5813C359.325 53.936 374.179 39.8647 392.07 39.8647C410.085 39.8647 418.897 54.2021 421.777 61.95L423.358 65.8943L376.95 85.1152C380.503 92.0804 386.028 95.6334 393.776 95.6334C401.539 95.6334 406.923 91.8143 410.868 86.023ZM374.445 73.5326L405.468 60.6508C403.762 56.3152 398.628 53.2943 392.586 53.2943C384.838 53.2943 374.054 60.1343 374.445 73.5326Z" fill="#EA4335"/>
<path d="M55.9865 65.5658V50.8371H105.62C106.105 53.4041 106.355 56.4406 106.355 59.7276C106.355 70.778 103.334 84.4424 93.5987 94.178C84.1291 104.039 72.03 109.298 56.0022 109.298C26.2943 109.298 1.31348 85.0997 1.31348 55.3919C1.31348 25.6841 26.2943 1.48584 56.0022 1.48584C72.437 1.48584 84.1448 7.93454 92.9413 16.3398L82.5483 26.7328C76.2404 20.8163 67.6943 16.2145 55.9865 16.2145C34.2926 16.2145 17.3257 33.698 17.3257 55.3919C17.3257 77.0858 34.2926 94.5693 55.9865 94.5693C70.0578 94.5693 78.0717 88.9189 83.2057 83.785C87.3691 79.6215 90.1083 73.6737 91.1883 65.5502L55.9865 65.5658Z" fill="#4285F4"/>
</svg>
